<svg width="108" height="108" viewBox="0 0 108 108" fill="none" xmlns="http://www.w3.org/2000/svg">
<path d="M16.1875 83.2276V24.7724C16.1875 12.9118 25.779 3.29688 37.6109 3.29688H24.5664C12.7008 3.29688 3.08203 12.9156 3.08203 24.7812V83.2188C3.08203 95.0841 12.7008 104.703 24.5664 104.703H37.6109C25.779 104.703 16.1875 95.0882 16.1875 83.2276Z" fill="#CEE1F2"/>
<path d="M71.4023 103.506C69.1826 104.281 66.7967 104.703 64.3125 104.703H24.7812C12.9156 104.703 3.29688 95.0841 3.29688 83.2188V24.7812C3.29688 12.9156 12.9156 3.29688 24.7812 3.29688H64.3125C76.1779 3.29688 85.7969 12.9156 85.7969 24.7812V47.3398M53.7852 81.2852H70.1133M20.4844 81.0703L24.4341 85.1614C26.1343 86.8681 28.8912 86.8681 30.5915 85.1614L38.7461 76.7734" stroke="#405FF2" stroke-width="5" stroke-miterlimit="10" stroke-linecap="round" stroke-linejoin="round"/>
<path d="M104.047 69.0629C99.32 67.2247 96.1951 66.9622 93.8535 66.9622C89.5029 66.9622 86.0117 70.489 86.0117 74.8398C86.0117 79.1906 89.9148 82.7175 95.6917 82.7175C100.681 82.7175 104.703 86.2444 104.703 90.5952C104.703 94.9458 100.961 98.4729 96.6106 98.4729C94.5763 98.4729 90.0458 97.8124 85.582 96.038M95.6797 66.9622V60.0156M95.6797 98.4727V104.703M56.793 56.793V58.5117M33.1602 56.793V58.5117" stroke="#FF5CF4" stroke-width="5" stroke-miterlimit="10" stroke-linecap="round" stroke-linejoin="round"/>
<path d="M67.5352 35.7383H67.1835C67.1734 35.7146 67.1661 35.6902 67.1557 35.6667L63.3038 27.1203C63.3002 27.1123 63.2967 27.1046 63.2931 27.0966C61.5023 23.1867 57.9291 20.3217 53.734 19.4329C51.2427 18.9053 48.1996 18.5508 44.8829 18.5508C41.6308 18.5508 38.6816 18.8928 36.2649 19.402C32.0507 20.2902 28.4639 23.1577 26.6706 27.0728C26.6669 27.0807 26.6635 27.0887 26.6598 27.0966L22.7974 35.6665C22.7869 35.6899 22.7798 35.7144 22.7697 35.7381H22.418C20.0448 35.7381 18.1211 37.6618 18.1211 40.0349C18.1211 42.4081 20.0448 44.3318 22.418 44.3318V48.303C22.418 53.8137 26.8339 58.2969 32.2617 58.2969H57.6912C63.1193 58.2969 67.5352 53.8137 67.5352 48.3032V44.332C69.9083 44.332 71.832 42.4083 71.832 40.0352C71.832 37.662 69.9083 35.7383 67.5352 35.7383ZM34.4885 30.6415C35.1541 29.1969 36.4799 28.1393 38.0369 27.8112C39.6093 27.4799 41.9015 27.1445 44.8831 27.1445C47.9326 27.1445 50.3212 27.4945 51.953 27.8402C53.4951 28.167 54.811 29.2227 55.4755 30.6654L57.7617 35.7383H32.1914L34.4885 30.6415ZM34.0195 52.0664C31.1718 52.0664 28.8633 49.7579 28.8633 46.9102C28.8633 44.0624 31.1718 41.7539 34.0195 41.7539C36.8673 41.7539 39.1758 44.0624 39.1758 46.9102C39.1758 49.7579 36.8673 52.0664 34.0195 52.0664ZM55.9336 52.0664C53.0858 52.0664 50.7773 49.7579 50.7773 46.9102C50.7773 44.0624 53.0858 41.7539 55.9336 41.7539C58.7813 41.7539 61.0898 44.0624 61.0898 46.9102C61.0898 49.7579 58.7813 52.0664 55.9336 52.0664Z" fill="#FF5CF4"/>
</svg>
