<svg width="60" height="56" viewBox="0 0 60 56" fill="none" xmlns="http://www.w3.org/2000/svg">
<path d="M23.5465 2.45312C19.8452 2.45312 16.4904 4.63082 14.9836 8.01145L8.88656 21.6906C5.23148 21.9418 2.34375 24.9843 2.34375 28.7031V34.0938C2.34375 37.3298 4.96711 39.9531 8.20312 39.9531H9.80918C9.81785 39.5022 9.82934 39.0514 9.84375 38.6005C9.4623 37.823 9.24727 36.949 9.24727 36.0245L9.14062 31.8672C9.14062 28.7927 9.76617 27.6094 12.0483 27.1497C13.1331 26.9311 14.0413 26.192 14.4858 25.1786L22.0148 8.01145C23.5215 4.63082 26.8764 2.45312 30.5777 2.45312H23.5465Z" fill="#EEF1FB"/>
<path d="M8.20312 39.9531C4.96711 39.9531 2.34375 37.3298 2.34375 34.0938V28.7031C2.34375 24.9843 5.23148 21.9418 8.88656 21.6906L14.9836 8.01145C16.4903 4.63082 19.8451 2.45312 23.5465 2.45312H34.2217C37.7441 2.45312 40.9692 4.4275 42.5711 7.56461L45.5859 13.4688M57.6562 28.7031C57.6562 24.8199 54.5082 21.6719 50.625 21.6719H18.6328M28.2422 13.4688V2.57031M32.4609 39.9531H27.1873M20.742 35.2656C18.1532 35.2656 16.0545 37.3643 16.0545 39.9531C16.0545 42.5419 18.1532 44.6406 20.742 44.6406C23.3307 44.6406 25.4295 42.5419 25.4295 39.9531C25.4295 37.3643 23.3309 35.2656 20.742 35.2656Z" stroke="#405FF2" stroke-width="3" stroke-miterlimit="10" stroke-linecap="round" stroke-linejoin="round"/>
<path d="M57.6562 39.6016C57.6562 44.0997 54.0098 47.8047 49.5117 47.8047C45.0136 47.8047 41.3672 44.1583 41.3672 39.6602C41.3672 35.162 45.0722 31.5156 49.5703 31.5156M43.5352 46.1055L36.0938 53.5469" stroke="#FF5CF3" stroke-width="3" stroke-miterlimit="10" stroke-linecap="round" stroke-linejoin="round"/>
</svg>
